<?xml version="1.0" encoding="utf-8"?>
<!-- Generator: Adobe Illustrator 27.4.1, SVG Export Plug-In . SVG Version: 6.00 Build 0)  -->
<svg version="1.1" id="Calque_1" xmlns="http://www.w3.org/2000/svg" xmlns:xlink="http://www.w3.org/1999/xlink" x="0px" y="0px"
	 viewBox="0 0 20 17.3" style="enable-background:new 0 0 20 17.3;" xml:space="preserve">
<style type="text/css">
	.st0{fill:#0B8E81;}
</style>
<g>
	<g>
		<path class="st0" d="M16.8,12.5l1.9,1.9c-1.5,1.8-3.8,2.7-6.5,2.7c-4.1,0-7.4-2.4-8.4-6H1.2V9.4h2.4c0-0.3,0-0.5,0-0.8
			c0-0.3,0-0.5,0-0.8H1.2V6.2h2.7c1-3.6,4.3-6,8.4-6c2.7,0,5,1,6.5,2.7l-1.9,1.8c-1.2-1.3-2.7-1.9-4.4-1.9C10,2.9,8,4.2,7.1,6.2h6.7
			v1.6H6.6c0,0.3,0,0.5,0,0.8c0,0.3,0,0.5,0,0.8h7.2v1.6H7.1c0.9,2,2.9,3.3,5.4,3.3C14.2,14.4,15.7,13.8,16.8,12.5z"/>
	</g>
</g>
</svg>
