<?xml version="1.0" encoding="UTF-8"?><svg id="Calque_1" xmlns="http://www.w3.org/2000/svg" viewBox="0 0 39.16 42.35"><defs><style>.cls-1{fill:#088478;}.cls-2{fill:#6db99b;}.cls-3{fill:#00a999;}.cls-4{fill:#f8b233;}</style></defs><path class="cls-1" d="m9.08,0C4.06,0,0,4.06,0,9.08h18.15C18.15,4.06,14.09,0,9.08,0Z"/><path class="cls-3" d="m39.16,9.08c0-4.57-3.38-8.35-7.77-8.98v-.09H8.27c5.01,0,9.08,4.06,9.08,9.08v33.28l10.79-10.1,11.03,10.1V9.08h0Z"/><path class="cls-2" d="m17.34,9.08h21.82c0-4.57-3.38-8.35-7.77-8.98v-.09H8.27c5.01,0,9.08,4.06,9.08,9.08Z"/><path class="cls-4" d="m34.29,20.92c0-1.98-1.61-3.6-3.59-3.6-1.45,0-2.71.87-3.27,2.11-.57-1.24-1.82-2.11-3.27-2.11-1.98,0-3.6,1.61-3.6,3.6,0,.42.07.82.2,1.19.15.43.38.81.67,1.15.12.14.26.28.4.4l5.48,5.45s.08.05.12.05.09-.02.12-.05l5.69-5.65h0c.37-.37.66-.82.84-1.32.14-.38.21-.79.21-1.22Z"/></svg>