<?xml version="1.0" encoding="utf-8"?>
<!-- Generator: Adobe Illustrator 27.4.1, SVG Export Plug-In . SVG Version: 6.00 Build 0)  -->
<svg version="1.1" id="Calque_1" xmlns="http://www.w3.org/2000/svg" xmlns:xlink="http://www.w3.org/1999/xlink" x="0px" y="0px"
	 viewBox="0 0 39.2 42.3" style="enable-background:new 0 0 39.2 42.3;" xml:space="preserve">
<style type="text/css">
	.st0{fill:#006633;}
	.st1{fill:#2FAC66;}
	.st2{fill:#008D36;}
	.st3{fill:#FFFFFF;}
</style>
<path class="st0" d="M12.1,6.2c-3.6,0-6.4,2.9-6.4,6.4h12.9C18.6,9.1,15.7,6.2,12.1,6.2z"/>
<path class="st1" d="M33.4,12.6c0-3.2-2.4-5.9-5.5-6.4v0H11.6c3.5,0,6.4,2.9,6.4,6.4v23.6l7.6-7.2l7.8,7.2V12.6L33.4,12.6L33.4,12.6
	z"/>
<path class="st2" d="M18,12.6h15.4c0-3.2-2.4-5.9-5.5-6.4v0H11.6C15.1,6.2,18,9.1,18,12.6L18,12.6z"/>
<g>
	<path class="st3" d="M24.3,25.4C24.3,25.4,24.3,25.4,24.3,25.4c-0.3,0-0.5-0.1-0.6-0.4c-0.8-1.3-2.3-2.5-2.3-2.6
		c-0.3-0.3-0.4-0.7-0.1-1.1c0.3-0.3,0.7-0.4,1.1-0.1c0.1,0,1.1,0.9,2,2.1c0.9-1.1,2.9-3,5.9-4.9c0.4-0.2,0.8-0.1,1,0.2
		c0.2,0.4,0.1,0.8-0.2,1c-4.1,2.6-6.1,5.3-6.1,5.3C24.8,25.3,24.6,25.4,24.3,25.4z"/>
</g>
</svg>
