<?xml version="1.0" encoding="utf-8"?>
<!-- Generator: Adobe Illustrator 27.4.1, SVG Export Plug-In . SVG Version: 6.00 Build 0)  -->
<svg version="1.1" id="Calque_1" xmlns="http://www.w3.org/2000/svg" xmlns:xlink="http://www.w3.org/1999/xlink" x="0px" y="0px"
	 viewBox="0 0 20 23.2" style="enable-background:new 0 0 20 23.2;" xml:space="preserve">
<style type="text/css">
	.st0{fill:#F8B233;}
</style>
<g>
	<g>
		<g>
			<path class="st0" d="M14.8,1.7l-10.4,3C2.9,5.1,2.1,6.6,2.5,8l2.3,8l13-3.7L14.8,1.7z"/>
		</g>
	</g>
</g>
<g>
	<g>
		<path class="st0" d="M18.4,12.1l-3.1-11c-0.2-0.8-1.1-1.3-1.9-1.1l-1.7,0.5L2.4,3.2c-1.7,0.5-2.7,2.3-2.2,4l3.4,11.9l0.1,0.3
			c0.4,1.4,1.7,2.4,3.1,2.4c0.2,0,0.4,0,0.6-0.1v-1.2c0,0,0,0,0,0c0,0,0,0,0,0c-0.5,0.2-1.1,0.1-1.6-0.2c-0.5-0.3-0.9-0.7-1-1.3
			l-0.1-0.3c-0.2-0.5-0.1-1.1,0.2-1.6c0.3-0.5,0.7-0.9,1.3-1l9.4-2.7l2.6-0.7C18.3,12.7,18.5,12.4,18.4,12.1z M15.1,12.4l-9.4,2.7
			c-0.8,0.2-1.4,0.7-1.8,1.3L1.2,6.9C0.9,5.8,1.5,4.6,2.7,4.3l9.4-2.7l1.7-0.5c0.2-0.1,0.4,0.1,0.5,0.3l3,10.4L15.1,12.4z"/>
	</g>
</g>
<path class="st0" d="M19.6,18.2L17,19l-5.7,1.6v-1.2l5.4-1.5l2.6-0.7c0.3-0.1,0.6,0.1,0.7,0.4C20.1,17.8,19.9,18.1,19.6,18.2z"/>
<g>
	<g>
		<g>
			<polygon class="st0" points="10.7,17.3 10.7,23.2 9.3,22.3 7.9,23.2 7.9,18.8 9.3,18.2 7.9,18.6 7.9,18.1 			"/>
		</g>
	</g>
</g>
<g>
	<g>
		<g>
			<path class="st0" d="M18.4,15.6l-7.7,2.2l-2,0.6l-0.7,0.2l-0.7,0.2c-0.1,0-0.1,0-0.2,0c-0.2,0-0.5-0.2-0.5-0.4
				c-0.1-0.3,0.1-0.6,0.4-0.7l11.2-3.2c0.3-0.1,0.6,0.1,0.7,0.4C18.9,15.3,18.7,15.6,18.4,15.6z"/>
		</g>
	</g>
</g>
</svg>
