<?xml version="1.0" encoding="utf-8"?>
<!-- Generator: Adobe Illustrator 27.4.1, SVG Export Plug-In . SVG Version: 6.00 Build 0)  -->
<svg version="1.1" id="Calque_1" xmlns="http://www.w3.org/2000/svg" xmlns:xlink="http://www.w3.org/1999/xlink" x="0px" y="0px"
	 viewBox="0 0 39.2 42.3" style="enable-background:new 0 0 39.2 42.3;" xml:space="preserve">
<style type="text/css">
	.st0{fill:#29235C;}
	.st1{fill:#662483;}
	.st2{fill:#951B81;}
	.st3{fill:#F8B233;}
</style>
<path class="st0" d="M12.1,6.2c-3.6,0-6.4,2.9-6.4,6.4h12.9C18.6,9.1,15.7,6.2,12.1,6.2z"/>
<path class="st1" d="M33.4,12.6c0-3.2-2.4-5.9-5.5-6.4v0H11.6c3.5,0,6.4,2.9,6.4,6.4v23.6l7.6-7.2l7.8,7.2V12.6L33.4,12.6L33.4,12.6
	z"/>
<path class="st2" d="M18,12.6h15.4c0-3.2-2.4-5.9-5.5-6.4v0H11.6C15.1,6.2,18,9.1,18,12.6L18,12.6z"/>
<polygon class="st3" points="25.7,16.5 27.2,19.6 30.6,20.1 28.2,22.5 28.7,25.9 25.7,24.3 22.6,25.9 23.2,22.5 20.7,20.1 
	24.1,19.6 "/>
</svg>
